<?xml version="1.0" encoding="utf-8"?>
<svg xmlns="http://www.w3.org/2000/svg" x="0px" y="0px"
width="85" height="85"
viewBox="0 0 172 172"
style=" fill:#000000;"><g fill="none" fill-rule="nonzero" stroke="none" stroke-width="1" stroke-linecap="butt" stroke-linejoin="miter" stroke-miterlimit="10" stroke-dasharray="" stroke-dashoffset="0" font-family="none" font-weight="none" font-size="none" text-anchor="none" style="mix-blend-mode: normal"><path d="M0,172v-172h172v172z" fill="none"></path><g fill="#037fff"><path d="M86,0c-47.42318,0 -86,38.58032 -86,86c0,47.41968 38.57682,86 86,86c47.42318,0 86,-38.58032 86,-86c0,-47.41968 -38.57682,-86 -86,-86zM86,7.16667c43.46892,0 78.83333,35.36442 78.83333,78.83333c0,43.46892 -35.36442,78.83333 -78.83333,78.83333c-43.46891,0 -78.83333,-35.36442 -78.83333,-78.83333c0,-43.46891 35.36442,-78.83333 78.83333,-78.83333zM50.16667,57.33333c-7.90153,0 -14.33333,6.4283 -14.33333,14.33333v35.83333c0,7.90503 6.4318,14.33333 14.33333,14.33333h18.44857c5.45899,0 10.37207,-3.03394 12.82161,-7.92253l4.56315,-9.14029l4.56315,9.14029c2.44955,4.88509 7.36263,7.92253 12.82161,7.92253h18.44857c7.90153,0 14.33333,-6.42831 14.33333,-14.33333v-35.83333c0,-7.90503 -6.4318,-14.33333 -14.33333,-14.33333zM50.16667,64.5h71.66667c3.95427,0 7.16667,3.2159 7.16667,7.16667v35.83333c0,3.95077 -3.2124,7.16667 -7.16667,7.16667h-18.44857c-2.72949,0 -5.18604,-1.51872 -6.41081,-3.96126l-4.56315,-9.1543c-1.22477,-2.44605 -3.68132,-3.94726 -6.41081,-3.94726c-2.72949,0 -5.18604,1.51521 -6.41081,3.96126l-4.57715,9.1403c-1.22478,2.44604 -3.66732,3.96126 -6.39681,3.96126h-18.44857c-3.95426,0 -7.16667,-3.2159 -7.16667,-7.16667v-35.83333c0,-3.95076 3.2124,-7.16667 7.16667,-7.16667zM62.70833,75.25c-6.91471,0 -12.54167,5.62695 -12.54167,12.54167c0,6.91472 5.62695,12.54167 12.54167,12.54167c6.91471,0 12.54167,-5.62695 12.54167,-12.54167c0,-6.91472 -5.62695,-12.54167 -12.54167,-12.54167zM109.29167,75.25c-6.91472,0 -12.54167,5.62695 -12.54167,12.54167c0,6.91472 5.62695,12.54167 12.54167,12.54167c6.91472,0 12.54167,-5.62695 12.54167,-12.54167c0,-6.91472 -5.62695,-12.54167 -12.54167,-12.54167zM62.70833,82.41667c2.96045,0 5.375,2.41105 5.375,5.375c0,2.96395 -2.41455,5.375 -5.375,5.375c-2.96045,0 -5.375,-2.41105 -5.375,-5.375c0,-2.96395 2.41455,-5.375 5.375,-5.375zM109.29167,82.41667c2.96045,0 5.375,2.41105 5.375,5.375c0,2.96395 -2.41455,5.375 -5.375,5.375c-2.96045,0 -5.375,-2.41105 -5.375,-5.375c0,-2.96395 2.41455,-5.375 5.375,-5.375z"></path></g></g></svg>