<?xml version="1.0" encoding="utf-8"?>

<svg xmlns="http://www.w3.org/2000/svg" x="0px" y="0px"
width="85" height="85"
viewBox="0 0 172 172"
style=" fill:#000000;">
<g fill="none" fill-rule="nonzero" stroke="none" stroke-width="1" stroke-linecap="butt" stroke-linejoin="miter" stroke-miterlimit="10" stroke-dasharray="" stroke-dashoffset="0" font-family="none" font-weight="none" font-size="none" text-anchor="none" style="mix-blend-mode: normal">
<path d="M0,172v-172h172v172z" fill="none">
</path>
<g fill="#037fff">
<path d="M51.6,10.32c-5.68406,0 -10.32,4.63594 -10.32,10.32v34.70906l6.88,-7.68625v-16.70281h75.68v16.70281l6.88,7.68625v-34.70906c0,-5.68406 -4.63594,-10.32 -10.32,-10.32zM51.6,17.2h68.8c1.89469,0 3.44,1.54531 3.44,3.44v3.44h-75.68v-3.44c0,-1.89469 1.54531,-3.44 3.44,-3.44zM55.91344,49.30219l-31.29594,34.97781l31.29594,34.97781l5.13313,-4.59563l-27.18406,-30.38219l27.18406,-30.38219zM116.08656,49.30219l-5.13313,4.59563l27.18406,30.38219l-27.18406,30.38219l5.13313,4.59563l31.29594,-34.97781zM41.28,113.21094v38.14906c0,5.68406 4.63594,10.32 10.32,10.32h68.8c5.68406,0 10.32,-4.63594 10.32,-10.32v-38.14906l-6.88,7.68625v13.26281h-75.68v-13.26281zM48.16,141.04h75.68v10.32c0,1.89469 -1.54531,3.44 -3.44,3.44h-68.8c-1.89469,0 -3.44,-1.54531 -3.44,-3.44zM75.68,144.48c-1.23625,-0.01344 -2.39187,0.63156 -3.02344,1.70656c-0.61813,1.075 -0.61813,2.39187 0,3.46687c0.63156,1.075 1.78719,1.72 3.02344,1.70656h20.64c1.23625,0.01344 2.39188,-0.63156 3.02344,-1.70656c0.61813,-1.075 0.61813,-2.39187 0,-3.46687c-0.63156,-1.075 -1.78719,-1.72 -3.02344,-1.70656z">
</path>
</g>
</g>
</svg>