<svg xmlns="http://www.w3.org/2000/svg" x="0px" y="0px"
width="85" height="85"
viewBox="0 0 172 172"
style=" fill:#000000;"><g fill="none" fill-rule="nonzero" stroke="none" stroke-width="1" stroke-linecap="butt" stroke-linejoin="miter" stroke-miterlimit="10" stroke-dasharray="" stroke-dashoffset="0" font-family="none" font-weight="none" font-size="none" text-anchor="none" style="mix-blend-mode: normal"><path d="M0,172v-172h172v172z" fill="none"></path><g fill="#037fff"><path d="M19.97057,9.74219c-6.93644,0 -12.57994,5.96848 -12.57994,13.1908v106.46397c0,7.22232 5.6435,13.04054 12.57994,13.04054h24.90268l9.53288,9.54272c0.73224,0.73882 1.90644,0.79908 2.71046,0.1391l7.29024,-6.03638c3.53721,2.14582 7.36933,3.76259 11.37463,4.79892l0.91661,9.50664c0.09586,1.04229 0.95868,1.84667 2.00513,1.86931h14.72089c1.04664,-0.02096 1.91046,-0.8249 2.00644,-1.86734l0.91661,-9.48236c4.01624,-1.01513 7.85582,-2.63196 11.38841,-4.79564l7.2758,6.02719c0.8089,0.65401 1.98238,0.58612 2.71046,-0.15682l9.53157,-9.54535h24.77408c6.93811,0 12.58191,-5.81822 12.58191,-13.04054v-84.69234v-0.02625v-0.02559v-21.7198c0,-7.22232 -5.64347,-13.1908 -12.58125,-13.1908zM19.97057,13.77344h132.05756c4.71388,0 8.55,4.16012 8.55,9.15955v19.73108h-149.15625v-19.73108c0,-4.99942 3.83482,-9.15955 8.54869,-9.15955zM25.25305,19.07036c-4.99405,0 -9.05916,4.21875 -9.05916,9.40428c0,5.18553 4.0631,9.40428 9.05916,9.40428c4.99505,0 9.05916,-4.21875 9.05916,-9.40428c0,-5.18553 -4.06511,-9.40428 -9.05916,-9.40428zM48.14339,19.07036c-4.99405,0 -9.05916,4.21875 -9.05916,9.40428c0,5.18553 4.0641,9.40428 9.05916,9.40428c4.99505,0 9.0585,-4.21875 9.0585,-9.40428c0,-5.18553 -4.06445,-9.40428 -9.0585,-9.40428zM71.03307,19.07036c-4.99405,0 -9.0585,4.21875 -9.0585,9.40428c0,5.18553 4.06345,9.40428 9.0585,9.40428c4.99505,0 9.05916,-4.21875 9.05916,-9.40428c0,-5.18553 -4.06511,-9.40428 -9.05916,-9.40428zM25.25305,23.10161c2.77216,0 5.02791,2.4104 5.02791,5.37303c0,2.96263 -2.25575,5.37303 -5.02791,5.37303c-2.77216,0 -5.02791,-2.4104 -5.02791,-5.37303c0,-2.96263 2.25575,-5.37303 5.02791,-5.37303zM48.14339,23.10161c2.77216,0 5.02725,2.4104 5.02725,5.37303c0,2.96263 -2.25509,5.37303 -5.02725,5.37303c-2.77216,0 -5.02791,-2.4104 -5.02791,-5.37303c0,-2.96263 2.25575,-5.37303 5.02791,-5.37303zM71.03307,23.10161c2.77216,0 5.02791,2.4104 5.02791,5.37303c0,2.96263 -2.25575,5.37303 -5.02791,5.37303c-2.77216,0 -5.02725,-2.4104 -5.02725,-5.37303c0,-2.96263 2.25644,-5.37303 5.02725,-5.37303zM11.42188,46.69531h149.15625v82.70164c0,4.99942 -3.83613,9.00929 -8.55,9.00929h-24.17044l-5.65582,-6.79289c2.14327,-3.52831 3.76079,-7.35019 4.80154,-11.34511l9.30586,-0.90874c1.01944,-0.10346 1.78704,-0.97487 1.76105,-1.99922v-14.69792c0.02608,-1.02656 -0.74221,-1.90032 -1.76367,-2.00578l-9.4548,-0.91727c-1.01278,-4.00883 -2.62583,-7.84151 -4.78449,-11.36807l6.03769,-7.2758c0.66267,-0.7971 0.61273,-1.96685 -0.11548,-2.70456l-10.2625,-10.36945c-0.73441,-0.74177 -1.91362,-0.80014 -2.71768,-0.13451l-7.29024,6.0436c-3.53655,-2.1442 -7.36779,-3.75942 -11.37201,-4.79433l-0.91661,-9.49614c-0.09697,-1.04059 -0.96148,-1.8415 -2.00644,-1.85881h-14.72089c-1.04496,0.01731 -1.90948,0.81822 -2.00644,1.85881l-0.91661,9.47711c-4.01586,1.01503 -7.85517,2.63141 -11.38775,4.79433l-7.27646,-6.0285c-0.80105,-0.66312 -1.97509,-0.60798 -2.71046,0.12729l-10.3911,10.37076c-0.73764,0.7359 -0.79282,1.9127 -0.12729,2.7144l6.03835,7.28302c-2.14282,3.53313 -3.76006,7.3593 -4.80089,11.35823l-9.43184,0.91793c-1.0219,0.10599 -1.79001,0.98073 -1.76302,2.00775v14.69989c-0.02592,1.0265 0.74229,1.90016 1.76367,2.00578l9.4548,0.91727c1.01298,3.99968 2.62612,7.82281 4.78449,11.3392l-5.66238,6.78174h-24.2997c-4.71387,0 -8.54869,-4.00987 -8.54869,-9.00929zM80.53314,61.8125h11.06035l0.87987,9.11427c0.08353,0.87928 0.72425,1.60452 1.58652,1.79582c4.53707,1.00585 8.85406,2.82633 12.74135,5.37303c0.73786,0.47583 1.69885,0.4193 2.37584,-0.13975l6.98514,-5.78902l7.68129,7.76003l-5.80411,7.00023c-0.56803,0.68513 -0.6195,1.6617 -0.12663,2.40274c2.56781,3.86171 4.38896,8.17055 5.3691,12.70329c0.1606,0.84788 0.85927,1.48945 1.71774,1.57733l9.03947,0.88052v11.04132l-8.91481,0.8779c-0.86109,0.0864 -1.56657,0.72149 -1.74268,1.5688c-1.00842,4.53087 -2.82639,8.84251 -5.36647,12.72757c-0.47907,0.74091 -0.42058,1.7073 0.14435,2.38503l5.80148,6.99235l-7.78955,7.77577l-6.99432,-5.79886c-0.68365,-0.5666 -1.65755,-0.6191 -2.39815,-0.12926c-3.86896,2.56343 -8.18466,4.37798 -12.72298,5.34941c-0.86396,0.2051 -1.50076,0.93853 -1.58258,1.82272l-0.87987,9.1228h-11.06035l-0.87987,-9.1228c-0.08319,-0.88014 -0.72326,-1.6068 -1.58586,-1.80041c-4.53732,-1.00672 -8.85449,-2.82785 -12.74201,-5.375c-0.73758,-0.4762 -1.69856,-0.42021 -2.37584,0.13844l-6.99367,5.79558l-7.79218,-7.77643l5.79689,-6.9917c0.56803,-0.68513 0.6195,-1.6617 0.12664,-2.40274c-2.56775,-3.86174 -4.3889,-8.17057 -5.3691,-12.7033c-0.15998,-0.84822 -0.85898,-1.49009 -1.71774,-1.57733l-9.03947,-0.88052v-11.03935l9.03947,-0.87987c0.86185,-0.08559 1.56832,-0.72086 1.74464,-1.5688c1.00884,-4.53084 2.82701,-8.84245 5.36713,-12.72757c0.47889,-0.74106 0.42013,-1.70744 -0.145,-2.38503l-5.79951,-6.99104l7.78955,-7.77512l6.99301,5.7982c0.6835,0.56681 1.65741,0.61956 2.39815,0.12991c3.86906,-2.56411 8.18497,-4.37932 12.72363,-5.35138c0.86273,-0.20112 1.50012,-0.93152 1.58258,-1.81354zM86.0105,78.53523c-17.37895,0.0234 -31.45059,14.12669 -31.43495,31.50565c0.01564,17.37896 14.11265,31.45689 31.49162,31.44901c17.37897,-0.00789 31.46319,-14.0986 31.46306,-31.47757c-0.03108,-17.38807 -14.13163,-31.46955 -31.51973,-31.47708zM84.95413,82.58485c7.46414,-0.29905 14.7277,2.45726 20.11438,7.63283c5.38668,5.17557 8.43103,12.32319 8.43047,19.79332c-0.02921,15.16224 -12.32622,27.43958 -27.48848,27.44452c-14.94051,-0.01627 -27.12355,-11.98003 -27.41113,-26.91779c-0.28758,-14.93775 11.42595,-27.36157 26.35476,-27.95288zM88.12192,93.30533c-0.95763,0.04791 -1.74896,0.76378 -1.89228,1.71184l-4.44789,29.38403c-0.16705,1.1007 0.58982,2.12841 1.69051,2.29546c1.1007,0.16705 2.12841,-0.58982 2.29546,-1.69051l4.44789,-29.38469c0.08035,-0.52878 -0.05276,-1.06781 -0.37001,-1.49841c-0.31726,-0.4306 -0.79264,-0.71744 -1.32149,-0.79738c-0.13305,-0.02019 -0.26779,-0.027 -0.4022,-0.02034zM78.26163,98.06554c-0.45397,-0.01025 -0.8981,0.13309 -1.26042,0.4068l-13.02873,9.85111c-0.50391,0.38096 -0.80006,0.97613 -0.80006,1.60784c0,0.63171 0.29616,1.22688 0.80006,1.60784l13.02873,9.85176c0.88827,0.6617 2.14405,0.48266 2.81201,-0.40091c0.66796,-0.88358 0.49779,-2.14059 -0.38106,-2.81477l-10.90222,-8.24359l10.90091,-8.24359c0.4265,-0.32248 0.7074,-0.80122 0.78086,-1.33084c0.07346,-0.52963 -0.06652,-1.06674 -0.38915,-1.49313c-0.37123,-0.49038 -0.94604,-0.78443 -1.56093,-0.79851zM93.90109,98.06554c-0.66455,-0.03113 -1.30166,0.26766 -1.70265,0.79851c-0.67051,0.8876 -0.4952,2.15059 0.39171,2.82201l10.90222,8.24425l-10.90222,8.24359c-0.88799,0.67147 -1.06351,1.93566 -0.39204,2.82365c0.67147,0.88799 1.93566,1.06351 2.82365,0.39204l13.02808,-9.85176c0.50391,-0.38096 0.80006,-0.97613 0.80006,-1.60784c0,-0.63171 -0.29616,-1.22688 -0.80006,-1.60784l-13.02808,-9.85176c-0.32422,-0.2448 -0.71485,-0.38591 -1.12067,-0.40483z"></path></g></g></svg>